<svg id="Layer_1" data-name="Layer 1" xmlns="http://www.w3.org/2000/svg" viewBox="0 0 60 60"><defs><style>.cls-1{fill:#76b82a;}.cls-2{fill:#30277e;}.cls-3{fill:none;}</style></defs><title>pp_icons_slideshare</title><path class="cls-1" d="M15.62,12.7V43H34.37l-1.2-4.1H19.24V16.53H40.67V34.21l3.62,1.38V12.7Z"/><polygon class="cls-2" points="53.48 38.49 45.6 34.79 45.6 20.67 53.48 16.97 53.48 38.49"/><polygon class="cls-2" points="57.5 35.7 54.57 33.44 54.57 22.95 57.5 20.69 57.5 35.7"/><polygon class="cls-2" points="6.52 38.95 14.4 35.25 14.4 21.14 6.52 17.44 6.52 38.95"/><polygon class="cls-2" points="2.5 36.16 5.43 33.9 5.43 23.42 2.5 21.15 2.5 36.16"/><path class="cls-2" d="M44.66,44.54,42.47,42l2-1.75a.39.39,0,0,0,.14-.38.43.43,0,0,0-.26-.32l-8-3.17a.49.49,0,0,0-.25,0,.3.3,0,0,0-.18.1.4.4,0,0,0-.12.41L38,45.1a.43.43,0,0,0,.29.29.39.39,0,0,0,.21,0,.43.43,0,0,0,.18-.09l2-1.76,1.37,1.56,2.72,3.12a.43.43,0,0,0,.59,0l1.1-1a.42.42,0,0,0,0-.59Z"/><rect id="_Slice_" data-name="&lt;Slice&gt;" class="cls-3" width="60" height="60"/></svg>