<svg id="Layer_1" data-name="Layer 1" xmlns="http://www.w3.org/2000/svg" viewBox="0 0 60 60"><defs><style>.cls-1{fill:#70be44;}.cls-2{fill:#2f3288;}.cls-3{fill:none;}</style></defs><title>pp_icons_ontologie</title><path class="cls-1" d="M46.74,43.62H44.65V16.87h2.08Z"/><path class="cls-1" d="M46.74,42.92V45h-28V42.92Z"/><path class="cls-1" d="M30.05,43.71H28V33.62h2.08Z"/><path class="cls-1" d="M45.28,26.16v2.08H35.61V26.16Z"/><path class="cls-2" d="M49.37,27.16a3.6,3.6,0,1,1-3.6-3.6A3.6,3.6,0,0,1,49.37,27.16Z"/><path class="cls-2" d="M32.49,44A3.48,3.48,0,1,1,29,40.52,3.48,3.48,0,0,1,32.49,44Z"/><path class="cls-2" d="M52.62,5.65v9.83a2,2,0,0,1-2,2H40.82a2,2,0,0,1-2-2V5.65a2,2,0,0,1,2-2h9.83A2,2,0,0,1,52.62,5.65Z"/><path class="cls-2" d="M35.91,22.36V32.2a2,2,0,0,1-2,2H24.11a2,2,0,0,1-2-2V22.36a2,2,0,0,1,2-2h9.83A2,2,0,0,1,35.91,22.36Z"/><path class="cls-2" d="M19.19,39.08v9.83a2,2,0,0,1-2,2H7.39a2,2,0,0,1-2-2V39.08a2,2,0,0,1,2-2h9.83A2,2,0,0,1,19.19,39.08Z"/><rect id="_Slice_" data-name="&lt;Slice&gt;" class="cls-3" width="60" height="60"/></svg>