<svg id="Layer_1" data-name="Layer 1" xmlns="http://www.w3.org/2000/svg" viewBox="0 0 60 60"><defs><style>.cls-1{fill:#70be44;}.cls-2{fill:#2f3288;}.cls-3{fill:none;}</style></defs><title>pp_icons_IT_Consulting</title><path class="cls-1" d="M34.73,24.27a.83.83,0,0,1,.33.29c.13.28-.26,1.15-.36,1.37a2.65,2.65,0,0,1-.64.8,7.39,7.39,0,0,1-1.31,3.06,11,11,0,0,0,.07,1.13c.12.33.75.59,1.13.7,2.65.77,6.51.49,6.41,4.27,0,.51,0,.35-.2.74a3.55,3.55,0,0,1-1,.6,19.12,19.12,0,0,1-9,1.93,19,19,0,0,1-9-1.93,3.52,3.52,0,0,1-1-.58c-.24-.34-.2-.21-.23-.74-.14-3.13,2.47-3.3,4.92-3.91.87-.22,2.36-.48,2.61-1.11a1.78,1.78,0,0,0,0-.85,4.38,4.38,0,0,0-.45-.73,6.89,6.89,0,0,1-.73-1.61,7.72,7.72,0,0,0-.23-.93,1.93,1.93,0,0,0-.31-.45,2.12,2.12,0,0,1-.38-.5c-.12-.28-.49-1-.36-1.24a.45.45,0,0,1,.43-.29c-.53-3.23,1.34-5.31,4.12-5.5C32.91,18.57,35.46,20.86,34.73,24.27Z"/><path class="cls-2" d="M29.91,10a20,20,0,0,1,13.53,5.31l.38.34L39.46,20H51V8.87L47.09,12.6l-.44-.33A24.47,24.47,0,0,0,30,5.63,24.75,24.75,0,0,0,5.48,30H9.85A20.07,20.07,0,0,1,29.91,10Z"/><path class="cls-2" d="M50.11,30A20,20,0,0,1,16.52,44.69l-.38-.37L20.34,40H9V51.13l3.89-3.73.43.33A24.46,24.46,0,0,0,30,54.37,24.75,24.75,0,0,0,54.48,30H50.11Z"/><rect id="_Slice_" data-name="&lt;Slice&gt;" class="cls-3" width="60" height="60"/></svg>