<svg id="Layer_1" data-name="Layer 1" xmlns="http://www.w3.org/2000/svg" viewBox="0 0 60 60"><defs><style>.cls-1{fill:#70be44;}.cls-2{fill:none;}.cls-3{fill:#2f3288;}</style></defs><title>pp_icons_Data_Scientist</title><path class="cls-1" d="M43.74,31.52a.22.22,0,0,1-.16-.07.21.21,0,0,1-.06-.16V23.76a.21.21,0,0,1,.06-.16.22.22,0,0,1,.16-.07h3.67v0a.22.22,0,0,1,.16.07.23.23,0,0,1,.06.16v7.53a.22.22,0,0,1-.06.16.22.22,0,0,1-.16.07Zm5.46,0a.22.22,0,0,1-.16-.07.21.21,0,0,1-.07-.16V21.64a.21.21,0,0,1,.07-.16.23.23,0,0,1,.16-.07h3.67v0a.22.22,0,0,1,.22.22v9.66a.23.23,0,0,1-.22.22Zm5.46,0a.22.22,0,0,1-.16-.07.21.21,0,0,1-.06-.16V19.71a.22.22,0,0,1,.06-.16.23.23,0,0,1,.16-.06h3.67v0a.22.22,0,0,1,.16.06.23.23,0,0,1,.06.16V31.29a.22.22,0,0,1-.06.16.21.21,0,0,1-.16.07Zm4.21,1.54h0ZM41.5,34.36a.76.76,0,0,1-.76-.76V19.45a.76.76,0,0,1,1.52,0V32.84H58.63a.76.76,0,1,1,0,1.52Z"/><path class="cls-2" d="M23,32.78c4.94,0,9.06-6.61,10-12,0-.05.25-4.8-3.2-4.53,0,0-13.5,4.29-15.24-1,0,0-1.07.23-1.61,4.91h0C13.63,25.66,17.87,32.78,23,32.78Zm9.34-14.17h0v0Z"/><path class="cls-3" d="M31.45,32.78c-.06,2.54-8.46,5-8.46,5s-8.4-2.42-8.46-5A13.93,13.93,0,0,0,1.9,46.65c0,7.69,6.24,7.27,13.93,7.27H30.17c7.69,0,13.93.42,13.93-7.27A13.93,13.93,0,0,0,31.45,32.78Z"/><path d="M32.34,18.62v0Z"/><path class="cls-3" d="M23,34.6c6.41,0,11.61-9.64,11.61-16.06a11.61,11.61,0,0,0-23.23,0C11.39,25,16.59,34.6,23,34.6ZM12.94,20.15c.54-4.68,1.61-4.91,1.61-4.91,1.73,5.28,15.24,1,15.24,1C33.23,16,33,20.71,33,20.76c-.91,5.41-5,12-10,12-5.13,0-9.38-7.12-10.07-12.63Z"/><polygon points="31.83 46.77 31.83 46.77 31.83 46.77 31.83 46.77"/><rect id="_Slice_" data-name="&lt;Slice&gt;" class="cls-2" width="60" height="60"/></svg>