<svg id="Layer_1" data-name="Layer 1" xmlns="http://www.w3.org/2000/svg" viewBox="0 0 60 60"><defs><style>.cls-1{fill:#2f3288;}.cls-2{fill:#70be44;}.cls-3{fill:none;}</style></defs><title>pp_icons_training</title><path class="cls-1" d="M47.3,26,41.77,20.5l-3.44-8A4.58,4.58,0,0,0,34.17,10H25.83a4.58,4.58,0,0,0-4.17,2.5l-3.44,8L12.7,26A2.08,2.08,0,1,0,15.64,29l5.83-5.83a2.09,2.09,0,0,0,.46-.7h0l2.23-4.94V45a2.5,2.5,0,0,0,5,0V31.67h1.67V52.5a2.5,2.5,0,0,0,5,0v-35l2.23,4.94h0a2.09,2.09,0,0,0,.46.7L44.36,29A2.08,2.08,0,1,0,47.3,26Z"/><path class="cls-1" d="M34.16,4.17c0,5.56-8.33,5.56-8.33,0s8.33-5.55,8.33,0"/><path class="cls-2" d="M45,31.67c0,12.17-2.6,26.67-15,26.67S15,43.83,15,31.67H13.33C13.33,50.2,19.1,60,30,60s16.67-9.8,16.67-28.33Z"/><rect id="_Slice_" data-name="&lt;Slice&gt;" class="cls-3" width="60" height="60"/></svg>