<svg xmlns="http://www.w3.org/2000/svg" viewBox="0 0 60 60"><defs><style>.cls-1{fill:none;}.cls-2{fill:#70be44;}.cls-3,.cls-4{fill:#2f3288;}.cls-3{fill-rule:evenodd;}</style></defs><title>pp_icons_textanalyse</title><g id="Layer_1" data-name="Layer 1"><rect id="_Slice_" data-name="&lt;Slice&gt;" class="cls-1" width="60" height="60"/></g><g id="Textanalyse"><polygon class="cls-2" points="42.33 15.52 42.33 13.92 17.7 13.92 17.7 15.52 17.7 15.52 42.33 15.52 42.33 15.52"/><rect class="cls-2" x="17.7" y="16.53" width="14.06" height="1.59"/><path class="cls-3" d="M44.42,23a9.05,9.05,0,0,0-7.11,3.42,9.21,9.21,0,0,0,.1,11.42,9.07,9.07,0,0,0,7,3.29,9.17,9.17,0,0,0,4.85-1.4l.49-.34,6.78,6.84a1.48,1.48,0,0,0,2,0,1.45,1.45,0,0,0,0-2.08l-6.8-6.8.34-.5a9,9,0,0,0-1.29-11.2A9,9,0,0,0,44.42,23Zm4.82,13.9a6.8,6.8,0,1,1,2-4.82A6.79,6.79,0,0,1,49.23,36.87Z"/><path class="cls-4" d="M48.57,36.15V27.94h0a6.08,6.08,0,0,0-2.45-1.46V37.62a6.09,6.09,0,0,0,2.45-1.46Z"/><path class="cls-4" d="M46.1,42v9.79H13.93V8.27H46.1V22.1a11.22,11.22,0,0,1,2.46.73V8.1a3.19,3.19,0,0,0-3.19-3.16H14.6A3.15,3.15,0,0,0,11.46,8.1V51.8a3.13,3.13,0,0,0,3.14,3.14H45.37a3.18,3.18,0,0,0,3.19-3.14V41.22A11.18,11.18,0,0,1,46.1,42Z"/><path class="cls-4" d="M17.7,22.76v1.59H37.93a9.21,9.21,0,0,1,2.51-1.59Z"/><path class="cls-2" d="M17.7,26.53V28H35.18A11,11,0,0,1,36,26.53Z"/><path class="cls-2" d="M42.33,26.63a6,6,0,0,0-2,1.29s-.07.06-.09.06h2.11Z"/><path class="cls-4" d="M42.33,30.16H38.91a5.37,5.37,0,0,0-.3,1.59h3.73Z"/><path class="cls-4" d="M17.7,30.16v1.59H34.38a11.15,11.15,0,0,1,.16-1.59Z"/><path class="cls-4" d="M42.33,35.4V33.92H38.88a6.45,6.45,0,0,0,.78,1.45h2.67Z"/><path class="cls-4" d="M17.7,33.92v1.45H34.94a9.68,9.68,0,0,1-.4-1.45Z"/><path class="cls-4" d="M36,37.55H17.7v1.59H37.23c-.2-.29-.4-.44-.59-.67S36.18,37.84,36,37.55Z"/><path class="cls-4" d="M17.7,41.31v1.59H42.33v-1a7.13,7.13,0,0,1-1.77-.57Z"/><rect class="cls-4" x="17.7" y="45.66" width="12.32" height="1.45"/></g></svg>