<svg id="Layer_1" data-name="Layer 1" xmlns="http://www.w3.org/2000/svg" viewBox="0 0 60 60"><defs><style>.cls-1{fill:none;}.cls-2{fill:#2f3288;}.cls-3{fill:#70be44;}</style></defs><title>pp_icons_data_linking</title><rect id="_Slice_" data-name="&lt;Slice&gt;" class="cls-1" width="60" height="60"/><circle class="cls-2" cx="5.24" cy="39.33" r="3.13"/><circle class="cls-2" cx="29.4" cy="5.78" r="4.51"/><circle class="cls-2" cx="38.4" cy="52.78" r="4.51"/><circle class="cls-2" cx="16.47" cy="20.18" r="2.17"/><circle class="cls-2" cx="23.47" cy="44.18" r="2.17"/><circle class="cls-2" cx="29.35" cy="29.85" r="7.5"/><circle class="cls-1" cx="23.47" cy="44.18" r="2.17"/><path class="cls-3" d="M26.74,37.93a8.4,8.4,0,0,1-1.15-.47l-1.33,3.66a3.13,3.13,0,0,1,1.12.55Z"/><path class="cls-3" d="M33.37,37.33a8.5,8.5,0,0,1-1.86.73l3.81,10.16a5.48,5.48,0,0,1,1.83-.79Z"/><path class="cls-3" d="M28.4,11.2V21.38a6.25,6.25,0,0,1,.78,0c.4,0,.22,0,1.22.09V11.2a3.42,3.42,0,0,1-1,.1C29.06,11.29,29.4,11.26,28.4,11.2Z"/><path class="cls-3" d="M22,34.14a8.45,8.45,0,0,1-.81-1.83L8.79,37.23a4.09,4.09,0,0,1,.57,1.92Z"/><circle class="cls-2" cx="45.9" cy="25.25" r="4.22"/><path class="cls-3" d="M37.43,27.21a8.39,8.39,0,0,1,.29,1.21l3.44-1a5.14,5.14,0,0,1-.39-1.18Z"/><circle class="cls-2" cx="51.18" cy="39.12" r="1.5"/><path class="cls-3" d="M37.21,33.07a8.43,8.43,0,0,1-.56,1.11l12.06,4.56a2.48,2.48,0,0,1,.49-1.14Z"/><path class="cls-3" d="M22.67,24.61l-3.51-2.77a3.17,3.17,0,0,1-.86.92L22,25.66A8.48,8.48,0,0,1,22.67,24.61Z"/></svg>