<svg id="Layer_1" data-name="Layer 1" xmlns="http://www.w3.org/2000/svg" viewBox="0 0 60 60"><defs><style>.cls-1{fill:#70be44;}.cls-2{fill:#2f3288;}.cls-3{fill:none;}</style></defs><title>pp_icons_relationale_datenbank</title><path class="cls-1" d="M7,37H19V25H7Zm1-9H18v8H8Z"/><path class="cls-1" d="M7,53H19V41H7Zm1-8H18v7H8Z"/><path class="cls-1" d="M23,37H35V25H23Zm1-9H34v8H24Z"/><path class="cls-1" d="M23,21H35V9H23Zm1-9H34v8H24Z"/><path class="cls-1" d="M39,25V37H51V25ZM50,36H40V28H50Z"/><path class="cls-1" d="M39,53H51V41H39Zm1-8H50v7H40Z"/><rect class="cls-2" x="19" y="30" width="4" height="2"/><rect class="cls-2" x="35" y="30" width="4" height="2"/><rect class="cls-2" x="28" y="21" width="2" height="4"/><polygon class="cls-2" points="30 37 28 37 28 49 29.92 49 39 49 39 47 30 47 30 37"/><rect class="cls-2" x="44" y="37" width="2" height="4"/><rect class="cls-2" x="12" y="37" width="2" height="4"/><rect id="_Slice_" data-name="&lt;Slice&gt;" class="cls-3" width="60" height="60"/></svg>