<svg id="Layer_1" data-name="Layer 1" xmlns="http://www.w3.org/2000/svg" viewBox="0 0 60 60"><defs><style>.cls-1{fill:#70be44;}.cls-2{fill:#2f3288;}.cls-3{fill:none;}</style></defs><title>pp_icons_recommender_system</title><path class="cls-1" d="M30,5A25,25,0,0,0,11,46.18L46.2,11A25,25,0,0,0,30,5ZM27.63,16.92v.8c0,.39-.75.71-1.68.71h-3c-.93,0-1.68-.32-1.68-.71v-.8c0-.39.75-.71,1.68-.71h3C26.89,16.21,27.63,16.53,27.63,16.92ZM19.9,26.47c.54,1.2-1,1.15-2.11.93-3.06-.61-3-1.32-3-8.18,0-1-.07-1.91.63-2.32,1.59-1,3.79-1.77,4.76-5.76h0a1.75,1.75,0,0,1,3.46.35v2.56c0,.84-.2,1.67-.9,1.86a4.59,4.59,0,0,0-.64,0,2,2,0,0,0-1.13.49c-.18.19-.2.26-.2.86v.52c.13.82-.06.83-.58,1.36a2,2,0,0,0-.13,1.94c.19.42-.39.79-.6,1.3a2.29,2.29,0,0,0,.18,1.51c.79.71.39.95.21,1.28A2.36,2.36,0,0,0,19.9,26.47Zm6.63-.29c0,.37-.69.66-1.55.66H22.16c-.86,0-1.55-.29-1.55-.66v-.75c0-.36.69-.66,1.55-.66H25c.86,0,1.55.29,1.55.66Zm1.14-2.66c0,.45-.88.81-2,.81H22.15c-1.09,0-2-.36-2-.81v-.91c0-.44.88-.81,2-.81h3.56c1.09,0,2,.36,2,.81Zm.45-2.93c0,.46-.88.83-2,.83H22.57c-1.09,0-2-.37-2-.83v-.95c0-.46.88-.84,2-.84h3.58c1.09,0,2,.37,2,.84Z"/><path class="cls-2" d="M49,13.82h0L13.8,49A25,25,0,0,0,49,13.82Zm-15.55,20c0-.37.69-.66,1.55-.66h2.82c.86,0,1.55.29,1.55.66v.75c0,.36-.69.66-1.55.66H35c-.86,0-1.55-.29-1.55-.66Zm-1.14,2.66c0-.45.88-.81,2-.81h3.56c1.09,0,2,.36,2,.81v.91c0,.44-.87.81-2,.81H34.29c-1.09,0-2-.36-2-.81Zm-.45,3.88v-.95c0-.46.88-.83,2-.83h3.58c1.09,0,2,.37,2,.83v.95c0,.46-.88.84-2,.84H33.85C32.76,41.19,31.88,40.82,31.88,40.36Zm.49,2.72v-.8c0-.39.75-.71,1.68-.71h3c.93,0,1.68.32,1.68.71v.8c0,.39-.75.71-1.68.71H34C33.11,43.79,32.37,43.47,32.37,43.08Zm12.22,0c-1.59,1-3.79,1.77-4.76,5.76h0a1.75,1.75,0,0,1-3.46-.35V45.95c0-.84.2-1.66.9-1.87a4.66,4.66,0,0,0,.64,0A2,2,0,0,0,39,43.57c.18-.2.2-.26.2-.86v-.52c-.13-.82.06-.83.58-1.36a2,2,0,0,0,.13-1.94c-.19-.42.39-.79.6-1.3a2.29,2.29,0,0,0-.18-1.51c-.79-.71-.39-.95-.21-1.28a2.36,2.36,0,0,0,0-1.27c-.34-.75.15-1,.82-1h0a5.46,5.46,0,0,1,1.29.12c3.06.61,3,1.32,3,8.18C45.21,41.76,45.28,42.69,44.58,43.11Z"/><rect id="_Slice_" data-name="&lt;Slice&gt;" class="cls-3" width="60" height="60"/></svg>