<svg id="Layer_1" data-name="Layer 1" xmlns="http://www.w3.org/2000/svg" viewBox="0 0 60 60"><defs><style>.cls-1{fill:#2f3288;}.cls-2{fill:#70be44;}.cls-3{fill:none;}</style></defs><title>pp_icons_demo</title><path class="cls-1" d="M57.47,40.33H2.53v-31H57.47ZM30,46.42a1.17,1.17,0,1,1,1.17-1.16A1.16,1.16,0,0,1,30,46.42ZM58.21,7H1.84A1.79,1.79,0,0,0,0,8.69V46.34a1.86,1.86,0,0,0,1.84,1.82H24c0,.57-.2,3-1.36,4.18-.91.93-2.18,1.8-1.68,2.25.12.28.69.43,2,.43h14.6c1.47,0,2-.24,2-.6h0V54.3h-.05c-.07-.49-1-1.2-1.79-2-1.16-1.18-1.34-3.62-1.36-4.18h21.9A1.81,1.81,0,0,0,60,46.34V8.7A1.75,1.75,0,0,0,58.21,7Z"/><rect class="cls-1" x="5" y="12" width="50" height="4"/><rect class="cls-2" x="17" y="20" width="17" height="2"/><rect class="cls-2" x="17" y="23" width="17" height="2"/><rect class="cls-2" x="17" y="26" width="17" height="2"/><rect class="cls-2" x="17" y="29" width="17" height="2"/><rect class="cls-2" x="17" y="32" width="17" height="2"/><rect class="cls-2" x="17" y="35" width="17" height="2"/><rect class="cls-2" x="35" y="20" width="20" height="3"/><rect class="cls-2" x="35" y="24" width="20" height="6"/><rect class="cls-2" x="35" y="31" width="20" height="6"/><rect class="cls-1" x="5.54" y="18" width="3.43" height="0.54"/><rect class="cls-1" x="6.11" y="19.54" width="6.47" height="0.54"/><rect class="cls-1" x="6.11" y="21.09" width="3.78" height="0.54"/><rect class="cls-1" x="6.59" y="22.63" width="5.23" height="0.54"/><rect class="cls-1" x="7.16" y="24.22" width="4.67" height="0.54"/><rect class="cls-1" x="7.16" y="25.76" width="3.43" height="0.54"/><rect class="cls-1" x="7.16" y="33.96" width="4.67" height="0.54"/><rect class="cls-1" x="7.16" y="35.5" width="3.43" height="0.54"/><rect class="cls-1" x="7.73" y="27.3" width="6.47" height="0.54"/><rect class="cls-1" x="7.73" y="28.85" width="3.78" height="0.54"/><rect class="cls-1" x="6.42" y="30.39" width="5.23" height="0.54"/><rect class="cls-1" x="8.77" y="31.98" width="4.67" height="0.54"/><rect class="cls-1" x="6.44" y="31.98" width="4.67" height="0.54"/><rect id="_Slice_" data-name="&lt;Slice&gt;" class="cls-3" width="60" height="60"/></svg>