<svg id="Layer_1" data-name="Layer 1" xmlns="http://www.w3.org/2000/svg" viewBox="0 0 60 60"><defs><style>.cls-1{fill:none;}.cls-2{fill:#70be44;}.cls-3{fill:#2f3288;}</style></defs><title>pp_icons_taxonomy</title><rect class="cls-1" x="23" y="9" width="15" height="2"/><rect class="cls-1" x="40" y="49" width="10" height="2"/><rect class="cls-1" x="10" y="49" width="10" height="2"/><rect class="cls-1" x="23" y="14" width="15" height="2"/><path class="cls-2" d="M36,48.11a6,6,0,1,1-6-6,6,6,0,0,1,6,6"/><path class="cls-2" d="M55,48.11a6,6,0,1,1-6-6,6,6,0,0,1,6,6"/><path class="cls-2" d="M16.94,48.11a6,6,0,1,1-6-6,6,6,0,0,1,6,6"/><path class="cls-3" d="M10.44,39.31a.59.59,0,0,0,.24.17.72.72,0,0,0,.58,0,.83.83,0,0,0,.2-.13l0,0,3.12-3.12a.74.74,0,0,0,0-1.05.76.76,0,0,0-1.07,0L11.73,37V31.71a3.66,3.66,0,0,1,3.66-3.66H25.59a6,6,0,0,0,3.66-1.18V37l-1.84-1.84a.75.75,0,0,0-1.06,1.05l3.12,3.13a.63.63,0,0,0,.24.17.71.71,0,0,0,.57,0,.68.68,0,0,0,.24-.17l3.12-3.12a.75.75,0,0,0-1.06-1.05L30.76,37V26.87A6,6,0,0,0,34.42,28H44.62a3.66,3.66,0,0,1,3.66,3.66V37l-1.84-1.84a.75.75,0,0,0-1.06,1.06l3.12,3.13,0,0a.7.7,0,0,0,.2.13.86.86,0,0,0,.29.06.79.79,0,0,0,.29-.06.63.63,0,0,0,.24-.17l3.12-3.12a.75.75,0,0,0-1.06-1.06L49.79,37V31.7a5.17,5.17,0,0,0-5.16-5.16H34.41c-2,0-3.66-1.14-3.66-2.48V20.84a.19.19,0,0,0,0,0,7.46,7.46,0,1,0-1.48,0s0,0,0,0v3.22c0,1.34-1.67,2.48-3.66,2.48H15.38a5.16,5.16,0,0,0-5.16,5.16V37L8.38,35.13a.75.75,0,0,0-1.06,1.06Z"/><rect id="_Slice_" data-name="&lt;Slice&gt;" class="cls-1" width="60" height="60"/></svg>