<svg id="Layer_1" data-name="Layer 1" xmlns="http://www.w3.org/2000/svg" viewBox="0 0 60 60"><defs><style>.cls-1{fill:#2f3288;fill-rule:evenodd;}.cls-2{fill:#70be44;}.cls-3{fill:none;}</style></defs><title>pp_icons_semantic_search</title><path class="cls-1" d="M50.81,55.58a3.2,3.2,0,0,0,2.31.94h0a3.19,3.19,0,0,0,2.3-.93,3.36,3.36,0,0,0,.11-4.8L40.43,35.67l.71-1A20.32,20.32,0,0,0,38.26,9.48a20.11,20.11,0,0,0-14.45-6,20.33,20.33,0,0,0-16,7.69,20.68,20.68,0,0,0,.24,25.65,20.36,20.36,0,0,0,15.74,7.39,20.59,20.59,0,0,0,10.9-3.14l1-.69Zm-27-15.48A16.21,16.21,0,0,1,12.34,12.41,16.22,16.22,0,1,1,35.28,35.34,16.1,16.1,0,0,1,23.81,40.1Z"/><rect class="cls-2" x="24.05" y="15.08" width="2.92" height="9.1"/><polygon class="cls-2" points="25.49 12.8 21.83 15.97 29.2 15.97 25.49 12.8"/><rect class="cls-2" x="15.8" y="24.17" width="2.92" height="9.1"/><polygon class="cls-2" points="17.23 35.55 13.57 32.38 20.94 32.38 17.23 35.55"/><rect class="cls-2" x="13.57" y="22.69" width="20.27" height="2.92"/><polygon class="cls-2" points="36.32 24.18 33.15 20.52 33.15 27.83 36.32 24.18"/><rect id="_Slice_" data-name="&lt;Slice&gt;" class="cls-3" width="60" height="60"/></svg>