<svg id="Layer_1" data-name="Layer 1" xmlns="http://www.w3.org/2000/svg" viewBox="0 0 60 60"><defs><style>.cls-1{fill:#2f3288;}.cls-2{fill:#70be44;}.cls-3{fill:none;}</style></defs><title>pp_icons_Data_Analysis</title><path class="cls-1" d="M57.47,41.08H2.53v-31H57.47ZM30,47.17A1.17,1.17,0,1,1,31.17,46,1.16,1.16,0,0,1,30,47.17ZM58.21,7.7H1.84A1.79,1.79,0,0,0,0,9.44V47.08A1.86,1.86,0,0,0,1.84,48.9H24c0,.57-.2,3-1.36,4.18-.91.93-2.18,1.8-1.68,2.25.12.28.69.43,2,.43h14.6c1.47,0,2-.24,2-.6h0V55h-.05c-.07-.49-1-1.2-1.79-2-1.16-1.18-1.34-3.62-1.36-4.18h21.9A1.81,1.81,0,0,0,60,47.09V9.44A1.75,1.75,0,0,0,58.21,7.7Z"/><rect class="cls-1" x="7.16" y="32.86" width="45.69" height="0.54"/><rect class="cls-1" x="7.16" y="34.79" width="45.69" height="0.54"/><rect class="cls-1" x="7.16" y="36.68" width="45.69" height="0.54"/><path class="cls-2" d="M15.79,29.9a1.57,1.57,0,0,0,1.34-2.4L23.64,21a1.57,1.57,0,0,0,1.93-.22l7,4.4a1.5,1.5,0,0,0-.09.51,1.57,1.57,0,1,0,3.15,0,1.52,1.52,0,0,0-.12-.62l7.65-5.61a1.57,1.57,0,1,0-.55-1.19,1.59,1.59,0,0,0,.12.62l-7.65,5.61a1.57,1.57,0,0,0-2.13.08l-7-4.4a1.61,1.61,0,0,0,.09-.51,1.58,1.58,0,1,0-2.92.83L16.61,27a1.54,1.54,0,0,0-.83-.24,1.57,1.57,0,1,0,0,3.14Z"/><rect id="_Slice_" data-name="&lt;Slice&gt;" class="cls-3" width="60" height="60"/></svg>