<svg id="Layer_1" data-name="Layer 1" xmlns="http://www.w3.org/2000/svg" viewBox="0 0 60 60"><defs><style>.cls-1{fill:#2f3288;}.cls-2{fill:#70be44;}.cls-3{fill:none;}</style></defs><title>pp_icons_webinar</title><path class="cls-1" d="M57.47,39.34H2.53v-31H57.47ZM30,45.44a1.17,1.17,0,1,1,1.17-1.16A1.16,1.16,0,0,1,30,45.44ZM58.21,6H1.84A1.79,1.79,0,0,0,0,7.71V45.35a1.86,1.86,0,0,0,1.84,1.82H24c0,.57-.2,3-1.36,4.18-.91.93-2.18,1.8-1.68,2.25.12.28.69.43,2,.43h14.6c1.47,0,2-.24,2-.6h0v-.12h-.05c-.07-.49-1-1.2-1.79-2-1.16-1.18-1.34-3.62-1.36-4.18h21.9A1.81,1.81,0,0,0,60,45.35V7.71A1.75,1.75,0,0,0,58.21,6Z"/><path class="cls-2" d="M53.3,46.76,51,42.51l3.42-1.84a.57.57,0,0,0,.32-.5.63.63,0,0,0-.26-.54L44.15,32.56a.72.72,0,0,0-.35-.11.44.44,0,0,0-.29.09.59.59,0,0,0-.31.54l.52,12.35a.62.62,0,0,0,.31.5.56.56,0,0,0,.3.08.62.62,0,0,0,.29-.07l3.42-1.85,1.44,2.66,2.86,5.3a.63.63,0,0,0,.83.25l1.87-1a.62.62,0,0,0,.24-.83Z"/><path class="cls-2" d="M30,14A10,10,0,1,0,40,24,10,10,0,0,0,30,14Zm5.44,10.54-7.2,3.83c-.55.29-1.24.05-1.24-.54V20.18c0-.6.69-.84,1.24-.54l7.14,3.83C35.92,23.76,36,24.24,35.44,24.54Z"/><rect id="_Slice_" data-name="&lt;Slice&gt;" class="cls-3" width="60" height="60"/></svg>