<svg id="Layer_1" data-name="Layer 1" xmlns="http://www.w3.org/2000/svg" viewBox="0 0 60 60"><defs><style>.cls-1{fill:#2f3288;}.cls-2{fill:#70be44;}.cls-3{fill:none;}</style></defs><title>pp_icons_industry</title><path class="cls-1" d="M33.59,5l1.14,6.58,4.91,2,5.44-3.86,5.08,5.18L46.4,20.34l2,4.92L55,26.4v7.2l-6.57,1.13L47,38.06l-4.3-4a9.88,9.88,0,0,0,.53-2.29,13.41,13.41,0,0,0-26.58-3.6,13.48,13.48,0,0,0,11.5,15.09,13,13,0,0,0,6.14-.6l4,4.3-3.59,1.48L33.6,55H26.31l-1.14-6.58-4.91-2-5.44,3.77L9.74,45.09l3.86-5.43-2.11-4.92L5,33.6V26.32l6.58-1.15,2-4.9L9.74,14.82l5.17-5.09,5.44,3.86,4.91-2.11L26.41,5Z"/><path class="cls-2" d="M48.18,44.21,35.54,32.14l.08-.24,1.1-3.39-4.81-4.32L28.84,25h-.08l.16.21,3.15,3.19L30.81,31,28.2,32.28l-3.1-3.16L25,29V29l-.92,3.09,4.23,4.81,3.38-1.1.39-.08L44.16,48.32a2.88,2.88,0,0,0,4-4.11ZM47,47.13a1.34,1.34,0,1,1-1.89-1.89A1.34,1.34,0,0,1,47,47.13Z"/><rect id="_Slice_" data-name="&lt;Slice&gt;" class="cls-3" width="60" height="60"/></svg>