<svg id="Layer_1" data-name="Layer 1" xmlns="http://www.w3.org/2000/svg" viewBox="0 0 60 60"><defs><style>.cls-1,.cls-4{fill:none;}.cls-1{stroke:#2f3288;stroke-linecap:square;stroke-miterlimit:10;stroke-width:2px;}.cls-2{fill:#2f3288;}.cls-3{fill:#70be44;}</style></defs><title>pp_icons_graph_database</title><path class="cls-1" d="M10.94,37.12A20.86,20.86,0,0,1,9.73,25.5"/><polygon class="cls-2" points="12.48 27.15 10.94 21.37 6.7 25.59 12.48 27.15"/><path class="cls-1" d="M40.94,46.94a20.79,20.79,0,0,1-16.53,2.24"/><polygon class="cls-2" points="26.33 46.64 20.42 47.57 24.18 52.23 26.33 46.64"/><path class="cls-1" d="M21.41,37.59A20.77,20.77,0,0,1,38,35.41"/><polygon class="cls-2" points="36.02 37.94 41.94 37.04 38.2 32.37 36.02 37.94"/><path class="cls-1" d="M49.66,22.28a20.65,20.65,0,0,1,1.2,7A20.9,20.9,0,0,1,50.68,32"/><polygon class="cls-2" points="47.88 30.51 49.66 36.22 53.71 31.82 47.88 30.51"/><path class="cls-1" d="M20.41,10.93A20.78,20.78,0,0,1,37.05,9.7"/><polygon class="cls-2" points="34.99 12.15 40.94 11.55 37.44 6.7 34.99 12.15"/><path class="cls-1" d="M40.88,21A20.81,20.81,0,0,1,24.32,23"/><polygon class="cls-2" points="26.26 20.49 20.35 21.39 24.09 26.06 26.26 20.49"/><path class="cls-3" d="M21,16a5.5,5.5,0,1,1-5.5-5.49A5.5,5.5,0,0,1,21,16Z"/><path class="cls-3" d="M51.91,16a5.5,5.5,0,1,1-5.5-5.49A5.5,5.5,0,0,1,51.91,16Z"/><circle class="cls-3" cx="15.53" cy="42.48" r="5.5"/><circle class="cls-3" cx="46.41" cy="42.48" r="5.5"/><rect id="_Slice_" data-name="&lt;Slice&gt;" class="cls-4" width="60" height="60"/></svg>