<svg id="Layer_1" data-name="Layer 1" xmlns="http://www.w3.org/2000/svg" viewBox="0 0 60 60"><defs><style>.cls-1{fill:#2f3288;}.cls-2{fill:#70be44;}.cls-3{fill:none;}</style></defs><title>pp_icons_concept_tagging</title><path class="cls-1" d="M27,7.5,9.32,9.32,7.5,27l7.37,7.37L34.38,14.87ZM19.9,19.9a3.75,3.75,0,1,1,0-5.3A3.74,3.74,0,0,1,19.9,19.9Z"/><path class="cls-2" d="M51.32,31.82,36.19,16.69,16.69,36.19,31.81,51.33s2.65,2.65,5.29,0L51.32,37.1S54,34.46,51.32,31.82ZM30.51,30.51v5.16a1,1,0,0,1-1,1.06,1,1,0,0,1-1-1.11V29.48a1,1,0,0,1,1-1h6.15s0,0,0,0a1,1,0,0,1,1.06,1,1.05,1.05,0,0,1-1.1,1Zm10.93,9.81a1.15,1.15,0,0,1-1.12,1.13H34.17l0,0a1.13,1.13,0,0,1,0-2.27h5v-5a1.18,1.18,0,0,1,1.16-1.11h0a1.13,1.13,0,0,1,1.1,1.11Z"/><rect id="_Slice_" data-name="&lt;Slice&gt;" class="cls-3" width="60" height="60"/></svg>