<svg id="Layer_1" data-name="Layer 1" xmlns="http://www.w3.org/2000/svg" viewBox="0 0 60 60"><defs><style>.cls-1{fill:none;}.cls-2{fill:#2f3288;}.cls-3{fill:#70be44;}</style></defs><title>pp_icons_Information_Architect</title><path class="cls-1" d="M13.2,24.66a.63.63,0,0,0,.54.24.46.46,0,0,0,.23-.12,14.49,14.49,0,0,0,4.57,6.9,6.48,6.48,0,0,0,3.94,1.47,6.55,6.55,0,0,0,4-1.53A14.55,14.55,0,0,0,31,24.78a.46.46,0,0,0,.23.12.57.57,0,0,0,.46-.17,3.64,3.64,0,0,0,.92-2c.22-1.22,0-2.28-.43-2.49l-.1,0a.57.57,0,0,0-.44.14h0v0a9.41,9.41,0,0,0-2-4.12,2.21,2.21,0,0,0-.44-.19c0,.31.33.77.37,1.23A8.12,8.12,0,0,0,26.27,16c-.32,0-.67,0-1,0a11.61,11.61,0,0,1-7-.16c-4.18-.39-4.84,4-4.89,4.45,0,0,0,0,0,0h0a.57.57,0,0,0-.45-.15.49.49,0,0,0-.18.08,1,1,0,0,0-.31.49c0,.58-.07,1.18-.07,1.79,0,.06,0,.11,0,.17A3.89,3.89,0,0,0,13.2,24.66Z"/><path class="cls-2" d="M36.34,35.61c-2-.46-4.38-.27-5.66-.67-.15,1.26-3.8,5.38-6.19,8l-1-4a2.57,2.57,0,0,0,.94-2.32H20.47a2.61,2.61,0,0,0,.93,2.31l-1,4c-2.39-2.59-6-6.72-6.2-8-1.28.4-3.68.2-5.66.67-1,.23-5.68.53-8.21,9.24a4.74,4.74,0,0,0,.33,3.52c2.07,3.92,13,5.12,21.79,5.12s19.71-1.2,21.79-5.12a4.75,4.75,0,0,0,.34-3.52C42,36.15,37.35,35.85,36.34,35.61Z"/><path class="cls-2" d="M12.23,25.68a18.72,18.72,0,0,0,4.24,6.73,10.39,10.39,0,0,0,3.4,2.29,6.88,6.88,0,0,0,5.23,0,10.53,10.53,0,0,0,3.51-2.4,18.75,18.75,0,0,0,4.13-6.64c.7-.21,1.44-1.52,1.74-3.21s0-3.42-.68-3.68c0-.44,0-.9,0-1.36,0-6.62-3.9-10.46-10-10.87-5.33-.36-9.35,1.76-11.18,5.28a11.57,11.57,0,0,0-1.1,4.28,11.07,11.07,0,0,0-.32,2.61h0v0h0c-.78.14-1.13,1.8-.79,3.72C10.7,24.22,11.5,25.58,12.23,25.68Zm.18-4.93a1,1,0,0,1,.31-.49.49.49,0,0,1,.18-.08.57.57,0,0,1,.45.15h0s0,0,0,0c.05-.5.71-4.84,4.89-4.45a11.61,11.61,0,0,0,7,.16c.36,0,.71,0,1,0a8.11,8.11,0,0,1,3.32,1.23c0-.45-.39-.92-.37-1.23a2.23,2.23,0,0,1,.44.19,9.41,9.41,0,0,1,2,4.12v0h0a.57.57,0,0,1,.44-.14l.1,0c.46.21.65,1.28.43,2.49a3.64,3.64,0,0,1-.92,2,.57.57,0,0,1-.46.17.46.46,0,0,1-.23-.12,14.55,14.55,0,0,1-4.49,6.85,6.55,6.55,0,0,1-4,1.53,6.47,6.47,0,0,1-3.94-1.47A14.5,14.5,0,0,1,14,24.78a.46.46,0,0,1-.23.12.63.63,0,0,1-.54-.24,3.88,3.88,0,0,1-.84-2c0-.06,0-.11,0-.17C12.34,21.93,12.36,21.34,12.41,20.75Z"/><path d="M12.25,33.77h0a2.67,2.67,0,0,0,.27.9h0a4.68,4.68,0,0,1-.28-.91S12.25,33.77,12.25,33.77Z"/><path d="M12.24,33.6s0,0,0-.06h0s0,0,0,.06Z"/><rect class="cls-3" x="40.12" y="21.92" width="7.68" height="3.45"/><rect class="cls-3" x="48.25" y="21.92" width="7.68" height="3.45"/><rect class="cls-3" x="40.12" y="29.73" width="7.68" height="3.45"/><rect class="cls-3" x="48.25" y="29.73" width="7.68" height="3.45"/><rect class="cls-3" x="44.18" y="25.82" width="7.68" height="3.45"/><rect class="cls-3" x="44.18" y="33.63" width="7.68" height="3.45"/><rect class="cls-3" x="36.05" y="25.82" width="7.68" height="3.45"/><rect class="cls-3" x="52.32" y="25.82" width="7.68" height="3.45"/><rect id="_Slice_" data-name="&lt;Slice&gt;" class="cls-1" width="60" height="60"/></svg>