<svg id="Layer_1" data-name="Layer 1" xmlns="http://www.w3.org/2000/svg" viewBox="0 0 60 60"><defs><style>.cls-1{fill:#2f3288;}.cls-2{fill:#70be44;}.cls-3{fill:none;}</style></defs><title>pp_icons_liked_data_enrichment</title><path class="cls-1" d="M31.17,15.19A28.11,28.11,0,0,1,43.24,23a2.77,2.77,0,0,1,1.85-.76,2.5,2.5,0,0,1,.59.08,21.78,21.78,0,0,0,1.08-10.62v-.07A25,25,0,0,0,39.22,7,38.09,38.09,0,0,0,31.17,15.19Z"/><path class="cls-1" d="M19.84,13.92c.86-.08,1.72-.14,2.6-.14a28,28,0,0,1,6.47.76,38,38,0,0,1,8.25-8.25,25,25,0,0,0-15.41.36,28,28,0,0,0-3.43,6.15A2.92,2.92,0,0,1,19.84,13.92Z"/><path class="cls-1" d="M17.06,18.29l-.35.07a28,28,0,0,0-.43,4.86A27.73,27.73,0,0,0,19.6,36.4a5.89,5.89,0,0,1,1.41,0,40.08,40.08,0,0,1,3.8-15,41.35,41.35,0,0,1,2.48-4.51,28.08,28.08,0,0,0-6.25-.7c-.38,0-.76,0-1.15,0A4.27,4.27,0,0,1,17.06,18.29Z"/><path class="cls-1" d="M29.58,17.54a41.78,41.78,0,0,0-2.39,4.37,40,40,0,0,0-3.81,15.23,6.06,6.06,0,0,1,2.17,2,28.17,28.17,0,0,0,16.4-10,6.42,6.42,0,0,1-.31-2,6.53,6.53,0,0,1,.21-1.63A28.13,28.13,0,0,0,29.58,17.54Z"/><path class="cls-1" d="M15.82,39.08a4.19,4.19,0,0,1,1.36-1.72,27.6,27.6,0,0,1-2.63-19.13,3.1,3.1,0,0,1-1.38-.86,28.05,28.05,0,0,0-5.9,2.48,25,25,0,0,0-1.5,16.58,27.92,27.92,0,0,0,9.88,3.13A4.16,4.16,0,0,1,15.82,39.08Z"/><path class="cls-1" d="M45.08,31.91a2.61,2.61,0,0,1-1.39-.41,28.21,28.21,0,0,1-17.3,10.38,4,4,0,0,1-.7,2.22,27.79,27.79,0,0,0,18.06,7A25.12,25.12,0,0,0,49,46.43c.05-.7.09-1.41.09-2.13a27.89,27.89,0,0,0-3-12.61A2.57,2.57,0,0,1,45.08,31.91Z"/><path class="cls-1" d="M24,45.7a29.76,29.76,0,0,0,3.61,9.43c.79.07,1.58.12,2.38.12a24.88,24.88,0,0,0,12.13-3.14h-.34A27.78,27.78,0,0,1,24,45.7Z"/><path class="cls-1" d="M19.09,45.64a5.86,5.86,0,0,1-3.43-3.72,27.67,27.67,0,0,1-9.27-3.45A25,25,0,0,0,25.34,54.81a29.41,29.41,0,0,1-3.5-8.67A6.29,6.29,0,0,1,19.09,45.64Z"/><path class="cls-1" d="M15.73,12.7a5,5,0,0,1,.7-.12,28,28,0,0,1,2.93-5A25.1,25.1,0,0,0,8.5,17.5a28,28,0,0,1,4.12-1.93A3.86,3.86,0,0,1,15.73,12.7Z"/><path class="cls-1" d="M55,30.25A24.91,24.91,0,0,0,48.1,13c.09.44.18.88.24,1.33a21.7,21.7,0,0,1-.72,9.52,6,6,0,0,1,.89,3.23,6.15,6.15,0,0,1-.67,2.84,28,28,0,0,1,2.67,11.94,28.38,28.38,0,0,1-.15,2.84A24.88,24.88,0,0,0,55,30.25Z"/><ellipse class="cls-2" cx="20.95" cy="41.25" rx="2.48" ry="2.9" transform="translate(-25.2 44.49) rotate(-67.09)"/><ellipse class="cls-2" cx="45.08" cy="27.1" rx="1.46" ry="2.04"/><ellipse class="cls-2" cx="16.39" cy="15.5" rx="1.64" ry="1.22" transform="translate(-3.14 4.22) rotate(-13.4)"/><rect id="_Slice_" data-name="&lt;Slice&gt;" class="cls-3" width="60" height="60"/></svg>